<?xml version="1.0" encoding="UTF-8"?>
<svg xmlns="http://www.w3.org/2000/svg" data-name="Layer 1" id="Layer_1" viewBox="0 0 128 128"><defs><style>.cls-1{fill:#f85565;}.cls-2,.cls-3{fill:#393c54;}.cls-2,.cls-7{opacity:0.2;}.cls-4{fill:#fff;}.cls-5{fill:#515570;opacity:0.1;}.cls-6,.cls-7{fill:none;stroke:#393c54;stroke-linecap:round;stroke-linejoin:round;stroke-width:4px;}</style></defs><title/><circle class="cls-1" cx="64" cy="64" r="58" style="fill: #f85565;"/><path class="cls-2" d="M53,107A71.65,71.65,0,0,1,16.25,96.91,58,58,0,0,0,121.56,57,72,72,0,0,1,53,107Z" style="fill: #393c54; opacity: 0.2;"/><path class="cls-3" d="M90.3,76.14c1.91.5,3.51-1.74,3.28-3.7C91.77,57.54,79.22,49,64,49S36.23,57.54,34.42,72.44c-.24,2,1.37,4.23,3.28,3.7C47.92,73.26,79.41,73.31,90.3,76.14Z" style="fill: #393c54;"/><path class="cls-4" d="M83,74.92V68.14a4,4,0,0,0-4-4H49a4,4,0,0,0-4,4v6.74A201.51,201.51,0,0,1,83,74.92Z" style="fill: #fff;"/><path class="cls-4" d="M83,57.14v-2.6A33,33,0,0,0,64,49a33,33,0,0,0-19,5.54v2.6a4,4,0,0,0,4,4H79A4,4,0,0,0,83,57.14Z" style="fill: #fff;"/><path class="cls-5" d="M45,71.88v3a201.51,201.51,0,0,1,38,0v-3A201.51,201.51,0,0,0,45,71.88Z" style="fill: #515570; opacity: 0.1;"/><path class="cls-5" d="M64,53a33.09,33.09,0,0,1,18.78,5.38A4,4,0,0,0,83,57.14v-2.6A33,33,0,0,0,64,49a33,33,0,0,0-19,5.54v2.6a4,4,0,0,0,.22,1.25A33.09,33.09,0,0,1,64,53Z" style="fill: #515570; opacity: 0.1;"/><path class="cls-6" d="M32,36s9-2,14,4c-5-1-12,2-15,6" style="fill: none; stroke: #393c54; stroke-linecap: round; stroke-linejoin: round; stroke-width: 4px;"/><path class="cls-6" d="M96,36s-9-2-14,4c5-1,12,2,15,6" style="fill: none; stroke: #393c54; stroke-linecap: round; stroke-linejoin: round; stroke-width: 4px;"/><line class="cls-7" x1="57" x2="71" y1="80" y2="80" style="opacity: 0.2; fill: none; stroke: #393c54; stroke-linecap: round; stroke-linejoin: round; stroke-width: 4px;"/>
	<metadata>
		<rdf:RDF xmlns:rdf="http://www.w3.org/1999/02/22-rdf-syntax-ns#" xmlns:rdfs="http://www.w3.org/2000/01/rdf-schema#" xmlns:dc="http://purl.org/dc/elements/1.1/">
			<rdf:Description about="https://iconscout.com/legal#licenses" dc:title="2291008,angry,bad,face,irritated,negative,smile,smiley" dc:description="2291008,angry,bad,face,irritated,negative,smile,smiley" dc:publisher="Iconscout" dc:date="2017-07-08" dc:format="image/svg+xml" dc:language="en">
				<dc:creator>
					<rdf:Bag>
						<rdf:li>Laura Reen</rdf:li>
					</rdf:Bag>
				</dc:creator>
			</rdf:Description>
		</rdf:RDF>
    </metadata></svg>
