<?xml version="1.0" encoding="UTF-8"?>
<svg xmlns="http://www.w3.org/2000/svg" data-name="Layer 1" id="Layer_1" viewBox="0 0 128 128"><defs><style>.cls-1{fill:#00adfe;}.cls-2{fill:#356cb6;opacity:0.4;}.cls-3{fill:#393c54;}.cls-4{fill:#fff;}.cls-5,.cls-6{fill:none;stroke:#393c54;stroke-linecap:round;stroke-miterlimit:10;stroke-width:4px;}.cls-6{opacity:0.3;}</style></defs><title/><circle class="cls-1" cx="64" cy="64" r="58" style="fill: #00adfe;"/><path class="cls-2" d="M53,107A71.65,71.65,0,0,1,16.25,96.91,58,58,0,0,0,121.56,57,72,72,0,0,1,53,107Z" style="fill: #356cb6; opacity: 0.4;"/><path class="cls-3" d="M85.17,107H44.71A13.26,13.26,0,0,1,31.32,94.6a13,13,0,0,1,13-13.6H84.77A13.26,13.26,0,0,1,98.15,93.4,13,13,0,0,1,85.17,107Z" style="fill: #393c54;"/><path class="cls-4" d="M81,92H51.24A7.24,7.24,0,0,1,44,84.76V81H87v5A6,6,0,0,1,81,92Z" style="fill: #fff;"/><path class="cls-4" d="M87,107H44v-5a6,6,0,0,1,6-6H81a6,6,0,0,1,6,6Z" style="fill: #fff;"/><path class="cls-5" d="M24.94,69.47a9.94,9.94,0,1,1,19.88,0" style="fill: none; stroke: #393c54; stroke-linecap: round; stroke-miterlimit: 10; stroke-width: 4px;"/><path class="cls-5" d="M83.18,69.47a9.94,9.94,0,1,1,19.88,0" style="fill: none; stroke: #393c54; stroke-linecap: round; stroke-miterlimit: 10; stroke-width: 4px;"/><line class="cls-6" x1="83" x2="99" y1="48" y2="48" style="fill: none; stroke: #393c54; stroke-linecap: round; stroke-miterlimit: 10; stroke-width: 4px; opacity: 0.3;"/><line class="cls-6" x1="29" x2="45" y1="48" y2="48" style="fill: none; stroke: #393c54; stroke-linecap: round; stroke-miterlimit: 10; stroke-width: 4px; opacity: 0.3;"/>
	<metadata>
		<rdf:RDF xmlns:rdf="http://www.w3.org/1999/02/22-rdf-syntax-ns#" xmlns:rdfs="http://www.w3.org/2000/01/rdf-schema#" xmlns:dc="http://purl.org/dc/elements/1.1/">
			<rdf:Description about="https://iconscout.com/legal#licenses" dc:title="2291010,disappointed,face,irritated,neuter,smile,smiley,teeth" dc:description="2291010,disappointed,face,irritated,neuter,smile,smiley,teeth" dc:publisher="Iconscout" dc:date="2017-07-08" dc:format="image/svg+xml" dc:language="en">
				<dc:creator>
					<rdf:Bag>
						<rdf:li>Laura Reen</rdf:li>
					</rdf:Bag>
				</dc:creator>
			</rdf:Description>
		</rdf:RDF>
    </metadata></svg>
