<?xml version="1.0" encoding="UTF-8"?>
<svg xmlns="http://www.w3.org/2000/svg" data-name="Layer 1" id="Layer_1" viewBox="0 0 128 128"><defs><style>.cls-1{fill:#a7aece;}.cls-2{fill:#6b718e;}.cls-2,.cls-7{opacity:0.3;}.cls-3,.cls-5{fill:#393c54;}.cls-4{fill:#4bc190;}.cls-5{opacity:0.2;}.cls-6,.cls-7{fill:none;stroke:#393c54;stroke-linecap:round;stroke-miterlimit:10;stroke-width:4px;}</style></defs><title/><circle class="cls-1" cx="64" cy="64" r="58" style="fill: #a7aece;"/><path class="cls-2" d="M53,107A71.65,71.65,0,0,1,16.25,96.91,58,58,0,0,0,121.56,57,72,72,0,0,1,53,107Z" style="fill: #6b718e; opacity: 0.3;"/><path class="cls-3" d="M43.56,102A2.56,2.56,0,0,1,41,99.12a23.13,23.13,0,0,1,46,0A2.56,2.56,0,0,1,84.44,102Z" style="fill: #393c54;"/><path class="cls-4" d="M48,104.1a2.1,2.1,0,0,1-2-2.29c0-4.81,8.74-6,18-6s18,1.24,18,6a2.1,2.1,0,0,1-2,2.29Z" style="fill: #4bc190;"/><path class="cls-4" d="M58,96v17a6,6,0,0,1,12,0V96Z" style="fill: #4bc190;"/><path class="cls-4" d="M70,102H82a0,0,0,0,1,0,0v10a6,6,0,0,1-6,6h0a6,6,0,0,1-6-6V102A0,0,0,0,1,70,102Z" style="fill: #4bc190;"/><path class="cls-4" d="M46,102H58a0,0,0,0,1,0,0v16a6,6,0,0,1-6,6h0a6,6,0,0,1-6-6V102A0,0,0,0,1,46,102Z" style="fill: #4bc190;"/><circle class="cls-5" cx="56" cy="102" r="4" style="fill: #393c54; opacity: 0.2;"/><circle class="cls-5" cx="74" cy="104" r="5" style="fill: #393c54; opacity: 0.2;"/><circle class="cls-5" cx="52" cy="117" r="3" style="fill: #393c54; opacity: 0.2;"/><path class="cls-6" d="M99.83,65.56a11.12,11.12,0,0,1-19.79,0" style="fill: none; stroke: #393c54; stroke-linecap: round; stroke-miterlimit: 10; stroke-width: 4px;"/><path class="cls-6" d="M48,65.56a11.12,11.12,0,0,1-19.79,0" style="fill: none; stroke: #393c54; stroke-linecap: round; stroke-miterlimit: 10; stroke-width: 4px;"/><line class="cls-7" x1="83" x2="101" y1="52" y2="48" style="opacity: 0.3; fill: none; stroke: #393c54; stroke-linecap: round; stroke-miterlimit: 10; stroke-width: 4px;"/><line class="cls-7" x1="27" x2="45" y1="48" y2="52" style="opacity: 0.3; fill: none; stroke: #393c54; stroke-linecap: round; stroke-miterlimit: 10; stroke-width: 4px;"/>
	<metadata>
		<rdf:RDF xmlns:rdf="http://www.w3.org/1999/02/22-rdf-syntax-ns#" xmlns:rdfs="http://www.w3.org/2000/01/rdf-schema#" xmlns:dc="http://purl.org/dc/elements/1.1/">
			<rdf:Description about="https://iconscout.com/legal#licenses" dc:title="2290988,drunk,face,puke,sick,smile,smiley,vomit" dc:description="2290988,drunk,face,puke,sick,smile,smiley,vomit" dc:publisher="Iconscout" dc:date="2017-07-08" dc:format="image/svg+xml" dc:language="en">
				<dc:creator>
					<rdf:Bag>
						<rdf:li>Laura Reen</rdf:li>
					</rdf:Bag>
				</dc:creator>
			</rdf:Description>
		</rdf:RDF>
    </metadata></svg>
