<?xml version="1.0" encoding="UTF-8"?>
<svg xmlns="http://www.w3.org/2000/svg" data-name="Layer 1" id="Layer_1" viewBox="0 0 128 128"><defs><style>.cls-1{fill:#f8dc25;}.cls-2{fill:#f2bc0f;opacity:0.7;}.cls-3{fill:#393c54;}.cls-4{fill:#fff;}.cls-5,.cls-6{fill:#515570;}.cls-6{opacity:0.1;}</style></defs><title/><circle class="cls-1" cx="64" cy="64" r="58" style="fill: #f8dc25;"/><path class="cls-2" d="M53,107A71.65,71.65,0,0,1,16.25,96.91,58,58,0,0,0,121.56,57,72,72,0,0,1,53,107Z" style="fill: #f2bc0f; opacity: 0.7;"/><path class="cls-3" d="M90.3,77a3.3,3.3,0,0,1,3.28,3.7,29.76,29.76,0,0,1-59.15,0A3.3,3.3,0,0,1,37.7,77Z" style="fill: #393c54;"/><path class="cls-4" d="M45,77H83a0,0,0,0,1,0,0v5a4,4,0,0,1-4,4H49a4,4,0,0,1-4-4V77A0,0,0,0,1,45,77Z" style="fill: #fff;"/><path class="cls-4" d="M45,100.21a29.52,29.52,0,0,0,38,0V100a4,4,0,0,0-4-4H49a4,4,0,0,0-4,4Z" style="fill: #fff;"/><circle class="cls-4" cx="39" cy="59" r="13" style="fill: #fff;"/><circle class="cls-5" cx="39" cy="59" r="7" style="fill: #515570;"/><path class="cls-1" d="M26,77c0-7.18,5.82-10,13-10s13,2.82,13,10" style="fill: #f8dc25;"/><circle class="cls-4" cx="89" cy="59" r="13" style="fill: #fff;"/><circle class="cls-5" cx="89" cy="59" r="7" style="fill: #515570;"/><path class="cls-1" d="M76,77c0-7.18,5.82-10,13-10s13,2.82,13,10" style="fill: #f8dc25;"/><rect class="cls-6" height="4" width="42" x="43" y="77" style="fill: #515570; opacity: 0.1;"/>
	<metadata>
		<rdf:RDF xmlns:rdf="http://www.w3.org/1999/02/22-rdf-syntax-ns#" xmlns:rdfs="http://www.w3.org/2000/01/rdf-schema#" xmlns:dc="http://purl.org/dc/elements/1.1/">
			<rdf:Description about="https://iconscout.com/legal#licenses" dc:title="2290987,excited,face,happy,positive,smile,smiley,welcoming" dc:description="2290987,excited,face,happy,positive,smile,smiley,welcoming" dc:publisher="Iconscout" dc:date="2017-07-08" dc:format="image/svg+xml" dc:language="en">
				<dc:creator>
					<rdf:Bag>
						<rdf:li>Laura Reen</rdf:li>
					</rdf:Bag>
				</dc:creator>
			</rdf:Description>
		</rdf:RDF>
    </metadata></svg>
