<?xml version="1.0" encoding="UTF-8"?>
<svg xmlns="http://www.w3.org/2000/svg" data-name="Layer 1" id="Layer_1" viewBox="0 0 128 128"><defs><style>.cls-1{fill:#f8dc25;}.cls-2{fill:#f2bc0f;opacity:0.7;}.cls-3,.cls-4,.cls-6,.cls-7{fill:none;stroke-linecap:round;}.cls-3{stroke:#393c54;stroke-miterlimit:10;}.cls-3,.cls-4,.cls-7{stroke-width:4px;}.cls-4{stroke:#f2bc0f;opacity:0.5;}.cls-4,.cls-6,.cls-7{stroke-linejoin:round;}.cls-5{fill:#393c54;}.cls-6,.cls-7{stroke:#00adfe;}.cls-6{stroke-width:6px;}</style></defs><title/><circle class="cls-1" cx="64" cy="64" r="58" style="fill: #f8dc25;"/><path class="cls-2" d="M53,107A71.65,71.65,0,0,1,16.25,96.91,58,58,0,0,0,121.56,57,72,72,0,0,1,53,107Z" style="fill: #f2bc0f; opacity: 0.7;"/><path class="cls-3" d="M26.79,71.9c1.45,3.14,5,4.57,9.25,4.57s7.65-1.38,9.16-4.38" style="fill: none; stroke-linecap: round; stroke: #393c54; stroke-miterlimit: 10; stroke-width: 4px;"/><path class="cls-3" d="M82.79,71.9c1.45,3.14,5,4.57,9.25,4.57s7.65-1.38,9.16-4.38" style="fill: none; stroke-linecap: round; stroke: #393c54; stroke-miterlimit: 10; stroke-width: 4px;"/><line class="cls-4" x1="83" x2="99" y1="59" y2="59" style="fill: none; stroke-linecap: round; stroke-width: 4px; opacity: 0.5; stroke: #f2bc0f; stroke-linejoin: round;"/><line class="cls-4" x1="29" x2="45" y1="59" y2="59" style="fill: none; stroke-linecap: round; stroke-width: 4px; opacity: 0.5; stroke: #f2bc0f; stroke-linejoin: round;"/><circle class="cls-5" cx="81" cy="100" r="7" style="fill: #393c54;"/><polyline class="cls-6" points="80.32 14 95.18 14 80.32 35 95.18 35" style="fill: none; stroke-linecap: round; stroke-linejoin: round; stroke: #00adfe; stroke-width: 6px;"/><polyline class="cls-7" points="104 31 111.57 31 103.79 42 112 42" style="fill: none; stroke-linecap: round; stroke-width: 4px; stroke-linejoin: round; stroke: #00adfe;"/>
	<metadata>
		<rdf:RDF xmlns:rdf="http://www.w3.org/1999/02/22-rdf-syntax-ns#" xmlns:rdfs="http://www.w3.org/2000/01/rdf-schema#" xmlns:dc="http://purl.org/dc/elements/1.1/">
			<rdf:Description about="https://iconscout.com/legal#licenses" dc:title="2291000,face,rest,sleep,sleepy,smile,smiley,tired" dc:description="2291000,face,rest,sleep,sleepy,smile,smiley,tired" dc:publisher="Iconscout" dc:date="2017-07-08" dc:format="image/svg+xml" dc:language="en">
				<dc:creator>
					<rdf:Bag>
						<rdf:li>Laura Reen</rdf:li>
					</rdf:Bag>
				</dc:creator>
			</rdf:Description>
		</rdf:RDF>
    </metadata></svg>
